<svg width="125" height="218" viewBox="0 0 125 218" fill="none" xmlns="http://www.w3.org/2000/svg">
<path d="M5.04154 191.077C7.3448 191.077 9.21199 189.21 9.21199 186.907C9.21199 184.604 7.3448 182.736 5.04154 182.736C2.73828 182.736 0.871094 184.604 0.871094 186.907C0.871094 189.21 2.73828 191.077 5.04154 191.077Z" fill="#7BC678"/>
<path d="M5.04154 86.6851C7.3448 86.6851 9.21199 84.8179 9.21199 82.5146C9.21199 80.2113 7.3448 78.3442 5.04154 78.3442C2.73828 78.3442 0.871094 80.2113 0.871094 82.5146C0.871094 84.8179 2.73828 86.6851 5.04154 86.6851Z" fill="#7BC678"/>
<path d="M33.7715 217.226C36.0748 217.226 37.942 215.358 37.942 213.055C37.942 210.752 36.0748 208.885 33.7715 208.885C31.4683 208.885 29.6011 210.752 29.6011 213.055C29.6011 215.358 31.4683 217.226 33.7715 217.226Z" fill="#7BC678"/>
<path d="M33.7715 191.077C36.0748 191.077 37.942 189.21 37.942 186.907C37.942 184.604 36.0748 182.736 33.7715 182.736C31.4683 182.736 29.6011 184.604 29.6011 186.907C29.6011 189.21 31.4683 191.077 33.7715 191.077Z" fill="#7BC678"/>
<path d="M33.7715 138.915C36.0748 138.915 37.942 137.047 37.942 134.744C37.942 132.441 36.0748 130.574 33.7715 130.574C31.4683 130.574 29.6011 132.441 29.6011 134.744C29.6011 137.047 31.4683 138.915 33.7715 138.915Z" fill="#7BC678"/>
<path d="M33.7715 60.603C36.0748 60.603 37.942 58.7358 37.942 56.4326C37.942 54.1293 36.0748 52.2622 33.7715 52.2622C31.4683 52.2622 29.6011 54.1293 29.6011 56.4326C29.6011 58.7358 31.4683 60.603 33.7715 60.603Z" fill="#7BC678"/>
<path d="M33.7715 34.5215C36.0748 34.5215 37.942 32.6544 37.942 30.3511C37.942 28.0479 36.0748 26.1807 33.7715 26.1807C31.4683 26.1807 29.6011 28.0479 29.6011 30.3511C29.6011 32.6544 31.4683 34.5215 33.7715 34.5215Z" fill="#7BC678"/>
<path d="M62.4346 191.077C64.7379 191.077 66.6051 189.21 66.6051 186.907C66.6051 184.604 64.7379 182.736 62.4346 182.736C60.1314 182.736 58.2642 184.604 58.2642 186.907C58.2642 189.21 60.1314 191.077 62.4346 191.077Z" fill="#7BC678"/>
<path d="M62.4346 164.995C64.7379 164.995 66.6051 163.128 66.6051 160.825C66.6051 158.521 64.7379 156.654 62.4346 156.654C60.1314 156.654 58.2642 158.521 58.2642 160.825C58.2642 163.128 60.1314 164.995 62.4346 164.995Z" fill="#7BC678"/>
<path d="M62.4346 112.833C64.7379 112.833 66.6051 110.965 66.6051 108.662C66.6051 106.359 64.7379 104.492 62.4346 104.492C60.1314 104.492 58.2642 106.359 58.2642 108.662C58.2642 110.965 60.1314 112.833 62.4346 112.833Z" fill="#7BC678"/>
<path d="M62.4346 86.6851C64.7379 86.6851 66.6051 84.8179 66.6051 82.5146C66.6051 80.2113 64.7379 78.3442 62.4346 78.3442C60.1314 78.3442 58.2642 80.2113 58.2642 82.5146C58.2642 84.8179 60.1314 86.6851 62.4346 86.6851Z" fill="#7BC678"/>
<path d="M62.4346 34.5215C64.7379 34.5215 66.6051 32.6544 66.6051 30.3511C66.6051 28.0479 64.7379 26.1807 62.4346 26.1807C60.1314 26.1807 58.2642 28.0479 58.2642 30.3511C58.2642 32.6544 60.1314 34.5215 62.4346 34.5215Z" fill="#7BC678"/>
<path d="M91.1644 217.226C93.4677 217.226 95.3349 215.358 95.3349 213.055C95.3349 210.752 93.4677 208.885 91.1644 208.885C88.8612 208.885 86.9941 210.752 86.9941 213.055C86.9941 215.358 88.8612 217.226 91.1644 217.226Z" fill="#7BC678"/>
<path d="M91.1644 191.077C93.4677 191.077 95.3349 189.21 95.3349 186.907C95.3349 184.604 93.4677 182.736 91.1644 182.736C88.8612 182.736 86.9941 184.604 86.9941 186.907C86.9941 189.21 88.8612 191.077 91.1644 191.077Z" fill="#7BC678"/>
<path d="M91.1644 164.995C93.4677 164.995 95.3349 163.128 95.3349 160.825C95.3349 158.521 93.4677 156.654 91.1644 156.654C88.8612 156.654 86.9941 158.521 86.9941 160.825C86.9941 163.128 88.8612 164.995 91.1644 164.995Z" fill="#7BC678"/>
<path d="M91.1644 138.915C93.4677 138.915 95.3349 137.047 95.3349 134.744C95.3349 132.441 93.4677 130.574 91.1644 130.574C88.8612 130.574 86.9941 132.441 86.9941 134.744C86.9941 137.047 88.8612 138.915 91.1644 138.915Z" fill="#7BC678"/>
<path d="M91.1644 86.6851C93.4677 86.6851 95.3349 84.8179 95.3349 82.5146C95.3349 80.2113 93.4677 78.3442 91.1644 78.3442C88.8612 78.3442 86.9941 80.2113 86.9941 82.5146C86.9941 84.8179 88.8612 86.6851 91.1644 86.6851Z" fill="#7BC678"/>
<path d="M91.1644 60.603C93.4677 60.603 95.3349 58.7358 95.3349 56.4326C95.3349 54.1293 93.4677 52.2622 91.1644 52.2622C88.8612 52.2622 86.9941 54.1293 86.9941 56.4326C86.9941 58.7358 88.8612 60.603 91.1644 60.603Z" fill="#7BC678"/>
<path d="M91.1644 8.43945C93.4677 8.43945 95.3349 6.57234 95.3349 4.26908C95.3349 1.96582 93.4677 0.0986328 91.1644 0.0986328C88.8612 0.0986328 86.9941 1.96582 86.9941 4.26908C86.9941 6.57234 88.8612 8.43945 91.1644 8.43945Z" fill="#7BC678"/>
<path d="M119.893 191.077C122.196 191.077 124.064 189.21 124.064 186.907C124.064 184.604 122.196 182.736 119.893 182.736C117.59 182.736 115.723 184.604 115.723 186.907C115.723 189.21 117.59 191.077 119.893 191.077Z" fill="#7BC678"/>
<path d="M119.893 138.915C122.196 138.915 124.064 137.047 124.064 134.744C124.064 132.441 122.196 130.574 119.893 130.574C117.59 130.574 115.723 132.441 115.723 134.744C115.723 137.047 117.59 138.915 119.893 138.915Z" fill="#7BC678"/>
<path d="M119.893 86.6851C122.196 86.6851 124.064 84.8179 124.064 82.5146C124.064 80.2113 122.196 78.3442 119.893 78.3442C117.59 78.3442 115.723 80.2113 115.723 82.5146C115.723 84.8179 117.59 86.6851 119.893 86.6851Z" fill="#7BC678"/>
</svg>
